<svg xmlns="http://www.w3.org/2000/svg" viewBox="0 0 173.22 106.68"><defs><style>.cls-1{isolation:isolate;}.cls-2{fill:#e47ab0;}.cls-3,.cls-7{fill:#dbdddd;}.cls-3{mix-blend-mode:multiply;}.cls-4{fill:#051b35;}.cls-5{fill:#fff;}.cls-6{fill:#a7acd7;}.cls-8{fill:#ed2224;}</style></defs><title>logo</title><g class="cls-1"><g id="Ebene_2" data-name="Ebene 2"><g id="Layer_3" data-name="Layer 3"><path class="cls-2" d="M7.45,14.53A75.36,75.36,0,0,0,14,20.41,93.76,93.76,0,0,0,24,27.26a76.36,76.36,0,0,0,22.35,8.83,77,77,0,0,0,24.17.65c1.18-.15,2.36-.33,3.55-.49a155.79,155.79,0,0,0,20.61-4.34,74.81,74.81,0,0,1-11.59,4.61c-2.51.79-5.06,1.47-7.62,2a40.09,40.09,0,0,0-5.76,9.92A50.72,50.72,0,0,0,66.4,60.34c-.17,1-.24,2.07-.35,3.09a24.41,24.41,0,0,0-.19,3.09c0,1-.06,2-.06,3.08L66,72.69l.09,1.54.22,1.54.43,3.07c.12.74.28,1.47.45,2.21.19-.76.41-1.49.64-2.25A23.2,23.2,0,0,1,70.61,73L73,69.46l-.82,4.23a27.69,27.69,0,0,0-.29,7.41,36,36,0,0,0,1.38,7.41,39.64,39.64,0,0,0,2.84,7,14.38,14.38,0,0,0,.73,1.4c-.09-.85-.16-1.69-.18-2.52a41.14,41.14,0,0,1,.79-8.52,72.64,72.64,0,0,1,2.14-8.2,74.13,74.13,0,0,1,3.06-7.91l2.23-4.63.32,5.15a20.92,20.92,0,0,0,.84,4.65,22.13,22.13,0,0,0,2,4.34,23.56,23.56,0,0,0,1.34,2,29.55,29.55,0,0,0,3.25,3.66c.59.58,1.2,1.13,1.85,1.67a49.69,49.69,0,0,0,8.21,5.55c1.53.84,3.09,1.63,4.69,2.33A26,26,0,0,1,104.27,88a29.63,29.63,0,0,1-1-3.84c-.13-.66-.23-1.32-.32-2a30.92,30.92,0,0,1-.22-6l.22-2.86,1.9,2.23a56.4,56.4,0,0,0,6.4,6.44c.63.54,1.28,1.06,1.94,1.56a61.31,61.31,0,0,0,5.42,3.8,85.91,85.91,0,0,0,16.5,7.81,121.57,121.57,0,0,0,17.73,4.72c1.31.25,2.62.46,3.94.68,3.16.5,6.35.88,9.51,1.13.2-2.16,1.4-21.08-12.81-36.74l-.16,0a86.55,86.55,0,0,1-2.13,9.69c-.13.41-.25.81-.38,1.18l-.2.56-.2,0-3.94.3-6.53.52.12-1.09s.25-2.28.45-4.31a15.16,15.16,0,0,1-2.72.58,19.39,19.39,0,0,1-3.49.25,16,16,0,0,1-6.94-1.6A10.89,10.89,0,0,1,123.71,68a34.2,34.2,0,0,1-11.62,1.85,25.29,25.29,0,0,1-12.42-3.27,17.48,17.48,0,0,1-4.88-4.5A22.2,22.2,0,0,1,92,56.25,27.41,27.41,0,0,1,90.72,49a29.51,29.51,0,0,1,.2-5.07,41.25,41.25,0,0,0,3,11.62,23,23,0,0,0,3,4.92A15.25,15.25,0,0,0,101.16,64a26.67,26.67,0,0,0,11,2.89,48,48,0,0,0,10.47-.65,2.42,2.42,0,0,1-.21-.39,10.48,10.48,0,0,1-.63-2.46l-4-.47c-2.13-.23-4.27-.37-6.42-.54s-4.29-.18-6.5-.3A34.26,34.26,0,0,1,118,61.1c1.24.14,2.48.32,3.71.55a11.68,11.68,0,0,1,.31-2.78c.14-.52.3-1,.48-1.52l-4.32-1.2c-2.33-.63-4.7-1.22-7.07-1.8s-4.74-1.06-7.18-1.5a44.23,44.23,0,0,1,14.7,1.66c1.5.42,3,.9,4.46,1.4a20.19,20.19,0,0,1,1.78-3.06,28.55,28.55,0,0,0-1.13,3.3A51.77,51.77,0,0,1,132.32,60c-3-.75-6-1.6-8.93-2.42a14.35,14.35,0,0,0-.18,1.45,11.49,11.49,0,0,0,.11,2.94c.39.09.77.15,1.15.26a31.43,31.43,0,0,1,6.22,2.17c-2.35-.27-4.68-.58-7-.85A10.53,10.53,0,0,0,124.3,65a8.67,8.67,0,0,0,4.2,3.78,14.33,14.33,0,0,0,5.8,1,18.75,18.75,0,0,0,8.37-2.06,10.64,10.64,0,0,0,2.46-1.9c2.42-2.58,3.3-6.6,3-10.44-4.48.5-8-3.32-8.14-6.37l1.69-.11.82,0,.47,0,1-.05,1.58-.11,6.26-.39a3,3,0,0,1,.39,0,21.72,21.72,0,0,0-9.33-9,44.73,44.73,0,0,0,1.2-5.55c0-1.16-9.83-13.81-25.76-19.23a43.42,43.42,0,0,0-6.58-1.72c-1.24-.18-2.48-.3-3.73-.38-2.51-.19-5.08-.25-7.66-.19a30.17,30.17,0,0,1,3.37-.72c.43-.09.84-.16,1.27-.22,0,0-21.56-11.57-47.43-7.51A89.7,89.7,0,0,1,76,7.67,82.44,82.44,0,0,1,98,18.76,91.79,91.79,0,0,0,75.45,9.4a97.51,97.51,0,0,0-24-3.22,113.22,113.22,0,0,0-24,2.39A123.49,123.49,0,0,0,7.45,14.53ZM130.13,40c-2-2.78-1.65.77-7.69,2s-9-6-8.76-9-3.82-6.42-3.82-6.42l1.4.59c5.51,2.67,10,8.65,13.37,8.93s2.69-1.72,2.54-2.1a.13.13,0,0,0,0-.07,10.65,10.65,0,0,1,1,1.56.46.46,0,0,0,.08.13A40.22,40.22,0,0,1,130.13,40Zm-25.76,4.52a42.23,42.23,0,0,1,8.09.84,49.48,49.48,0,0,1,7.86,2.28,45.64,45.64,0,0,1,6.23,2.89c.39.19.77.43,1.15.64a33.45,33.45,0,0,1,6.51,4.92c-1.6-.92-3.2-1.74-4.81-2.53q-1.18-.6-2.37-1.17l-1.45-.68c-1.94-.88-3.89-1.72-5.87-2.49-2.47-.95-5-1.83-7.55-2.6S107,45.24,104.37,44.56ZM16.49,15.62C64.51,6,86,23.69,86,23.69c-9.06,6.73-20.19,7.63-20.19,7.63a21.86,21.86,0,0,0,8-4.11,1.41,1.41,0,0,0-.46-2.42C58.9,20.11,39.49,20.64,32,21.07a1.43,1.43,0,0,0-.75,2.57A51.49,51.49,0,0,0,40,28.39,36,36,0,0,1,16.49,15.62ZM149.83,63.2a2.57,2.57,0,0,0,.67.19,4,4,0,0,0,1.81-.18A5.47,5.47,0,0,0,155.23,61c1.46-2.15,1.47-5.07.81-7.75a16.35,16.35,0,0,0-1.56-4l-2.28-1s1.65,5-2.17,6.67a17.77,17.77,0,0,1,.29,6.3A16.2,16.2,0,0,1,149.83,63.2Z"/><path class="cls-3" d="M7.45,14.53A75.36,75.36,0,0,0,14,20.41,93.76,93.76,0,0,0,24,27.26a76.36,76.36,0,0,0,22.35,8.83,77,77,0,0,0,24.17.65c1.18-.15,2.36-.33,3.55-.49a155.79,155.79,0,0,0,20.61-4.34,74.81,74.81,0,0,1-11.59,4.61c-2.51.79-5.06,1.47-7.62,2a40.09,40.09,0,0,0-5.76,9.92A50.72,50.72,0,0,0,66.4,60.34c-.17,1-.24,2.07-.35,3.09a24.41,24.41,0,0,0-.19,3.09c0,1-.06,2-.06,3.08L66,72.69l.09,1.54.22,1.54.43,3.07c.12.74.28,1.47.45,2.21.19-.76.41-1.49.64-2.25A23.2,23.2,0,0,1,70.61,73L73,69.46l-.82,4.23a27.69,27.69,0,0,0-.29,7.41,36,36,0,0,0,1.38,7.41,39.64,39.64,0,0,0,2.84,7,14.38,14.38,0,0,0,.73,1.4c-.09-.85-.16-1.69-.18-2.52a41.14,41.14,0,0,1,.79-8.52,72.64,72.64,0,0,1,2.14-8.2,74.13,74.13,0,0,1,3.06-7.91l2.23-4.63.32,5.15a20.92,20.92,0,0,0,.84,4.65,22.13,22.13,0,0,0,2,4.34,23.56,23.56,0,0,0,1.34,2,29.55,29.55,0,0,0,3.25,3.66c.59.58,1.2,1.13,1.85,1.67a49.69,49.69,0,0,0,8.21,5.55c1.53.84,3.09,1.63,4.69,2.33A26,26,0,0,1,104.27,88a29.63,29.63,0,0,1-1-3.84c-.13-.66-.23-1.32-.32-2a30.92,30.92,0,0,1-.22-6l.22-2.86,1.9,2.23a56.4,56.4,0,0,0,6.4,6.44c.63.54,1.28,1.06,1.94,1.56a61.31,61.31,0,0,0,5.42,3.8,85.91,85.91,0,0,0,16.5,7.81,121.57,121.57,0,0,0,17.73,4.72c1.31.25,2.62.46,3.94.68-.14-6.51-1.38-16-6.37-24.11l-3.94.3-6.53.52.12-1.09s.25-2.28.45-4.31a15.16,15.16,0,0,1-2.72.58,19.39,19.39,0,0,1-3.49.25,16,16,0,0,1-6.94-1.6A10.89,10.89,0,0,1,123.71,68a34.2,34.2,0,0,1-11.62,1.85,25.29,25.29,0,0,1-12.42-3.27,17.48,17.48,0,0,1-4.88-4.5A22.2,22.2,0,0,1,92,56.25,27.41,27.41,0,0,1,90.72,49a29.51,29.51,0,0,1,.2-5.07,41.25,41.25,0,0,0,3,11.62,23,23,0,0,0,3,4.92A15.25,15.25,0,0,0,101.16,64a26.67,26.67,0,0,0,11,2.89,48,48,0,0,0,10.47-.65,2.42,2.42,0,0,1-.21-.39,10.48,10.48,0,0,1-.63-2.46l-4-.47c-2.13-.23-4.27-.37-6.42-.54s-4.29-.18-6.5-.3A34.26,34.26,0,0,1,118,61.1c1.24.14,2.48.32,3.71.55a11.68,11.68,0,0,1,.31-2.78c.14-.52.3-1,.48-1.52l-4.32-1.2c-2.33-.63-4.7-1.22-7.07-1.8s-4.74-1.06-7.18-1.5a44.23,44.23,0,0,1,14.7,1.66c1.5.42,3,.9,4.46,1.4a20.19,20.19,0,0,1,1.78-3.06,11.62,11.62,0,0,1,.72-1.1c-1.94-.88-3.89-1.72-5.87-2.49-2.47-.95-5-1.83-7.55-2.6s-5.15-1.42-7.79-2.1a42.23,42.23,0,0,1,8.09.84,49.48,49.48,0,0,1,7.86,2.28,45.64,45.64,0,0,1,6.23,2.89,9.48,9.48,0,0,1,2.17-1.76c1.85-2.08,3.6-6.21-.5-13.15A40.22,40.22,0,0,1,130.13,40c-2-2.78-1.65.77-7.69,2s-9-6-8.76-9-3.82-6.42-3.82-6.42S98.15,20.18,86,23.69a18.45,18.45,0,0,1-19.27-5.38L16.49,15.62Z"/><path class="cls-4" d="M0,12.88l1.9,2.2a66.87,66.87,0,0,0,9.37,8.81A79.43,79.43,0,0,0,21.81,31a75.17,75.17,0,0,0,23.83,8.73,66.68,66.68,0,0,0,12.68.88,81.89,81.89,0,0,0,12.54-1.15c.32-.05.63-.12.93-.18a45.53,45.53,0,0,0-4.28,8.29A53.66,53.66,0,0,0,64.26,60c-.16,1.06-.22,2.12-.32,3.19a24.49,24.49,0,0,0-.15,3.2c0,1.07,0,2.15,0,3.21L64,72.83l.11,1.6L64.37,76l.48,3.15c.4,2.08,1,4.15,1.44,6.21l1,4.59.7-4.68a45.1,45.1,0,0,1,1.49-5.9c.16-.47.32-.93.5-1.38a31.89,31.89,0,0,0,.11,3.24c.05.7.12,1.4.23,2.1s.2,1.29.3,1.92c.26,1.26.54,2.51.92,3.75s.82,2.51,1.31,3.73c.11.27.21.54.34.79A24.06,24.06,0,0,0,79,101.87c-1-4-.32-9.7.38-13.58a4.37,4.37,0,0,1,.09-.5c0-.28.11-.55.16-.84s.09-.41.13-.61.12-.57.18-.81A5.41,5.41,0,0,1,80.1,85c.05-.27.11-.49.14-.63l.06-.2a.23.23,0,0,0,0-.07Q81,81.26,82,78.48c.42-1.18.86-2.37,1.35-3.53.07.27.11.54.2.8a22.37,22.37,0,0,0,2.27,4.88,32.11,32.11,0,0,0,7,7.92,51.8,51.8,0,0,0,8.66,5.81A61.87,61.87,0,0,0,111,98.57l5.33,1.85-4.07-3.93a22.43,22.43,0,0,1-5.69-9.22,28.81,28.81,0,0,1-1.24-5.4c-.11-.77-.16-1.58-.21-2.38A61.64,61.64,0,0,0,109.5,84,70.53,70.53,0,0,0,117,89.8a87.93,87.93,0,0,0,16.88,8.59,124,124,0,0,0,18.12,5.4,129.75,129.75,0,0,0,18.78,2.75l2.21.14.12-2.13a43.91,43.91,0,0,0-1-12,51.83,51.83,0,0,0-3.76-11.14A54.52,54.52,0,0,0,155.25,64a7.41,7.41,0,0,0,1.83-1.79,10,10,0,0,0,1.83-4.72,15.74,15.74,0,0,0-.21-4.9,22.56,22.56,0,0,0-3.9-8.75,32.78,32.78,0,0,0-5.72-6.12l.39-2.6.15-.9.09-.66a2.6,2.6,0,0,0-.06-.78c-.07-.25-.07-.19-.09-.3l-.18-.39a13.77,13.77,0,0,0-1.14-1.87A39.16,39.16,0,0,0,143,24.39a50.39,50.39,0,0,0-12.74-8.84,46.52,46.52,0,0,0-14.77-4.47c-.61-.09-1.23-.09-1.86-.14A93.86,93.86,0,0,0,98.42,4.55,99.67,99.67,0,0,0,81.81.78,80.52,80.52,0,0,0,64.74.21L60.46.59l-4.24.73c-.7.13-1.4.22-2.1.38L52,2.26l-3.58,1A116.63,116.63,0,0,0,26.77,4.86,109.5,109.5,0,0,0,2.69,11.67ZM146.08,33v.13l0,.07s0-.06,0-.09C146.1,32.88,146.08,33,146.08,33ZM7.45,14.53a123.49,123.49,0,0,1,20-6,113.22,113.22,0,0,1,24-2.39,97.51,97.51,0,0,1,24,3.22A91.79,91.79,0,0,1,98,18.76,82.44,82.44,0,0,0,76,7.67,89.7,89.7,0,0,0,57.55,3.73l3.27-.61,4.1-.42A77.46,77.46,0,0,1,81.52,3,95.38,95.38,0,0,1,97.81,6.49a96.42,96.42,0,0,1,11.57,4.36,40.2,40.2,0,0,0-9,1.33,66.79,66.79,0,0,1,14.82,1.16,47.07,47.07,0,0,1,13.72,4.95A53.53,53.53,0,0,1,140.52,27a44.56,44.56,0,0,1,4.72,5.43c.27.42.57.85.75,1.21l-.12.79-.54,3.89-.14,1.09.91.63a29,29,0,0,1,6.15,5.78A19.54,19.54,0,0,1,156,53.2c.66,2.68.65,5.6-.81,7.75a5.47,5.47,0,0,1-2.92,2.26,4,4,0,0,1-1.81.18,2.57,2.57,0,0,1-.67-.19,16.2,16.2,0,0,0,.49-2,17.77,17.77,0,0,0-.29-6.3c3.82-1.65,2.17-6.67,2.17-6.67L140,49c.16,3.05,3.66,6.87,8.14,6.37.27,3.84-.61,7.86-3,10.44-2.58,2.76-6.78,3.8-10.83,4a14.33,14.33,0,0,1-5.8-1A8.67,8.67,0,0,1,124.3,65a10.53,10.53,0,0,1-.59-1.39c2.3.27,4.63.58,7,.85a31.43,31.43,0,0,0-6.22-2.17c-.38-.11-.76-.17-1.15-.26a11.49,11.49,0,0,1-.11-2.94,14.35,14.35,0,0,1,.18-1.45c3,.82,5.92,1.67,8.93,2.42a51.77,51.77,0,0,0-8.59-3.87,28.55,28.55,0,0,1,1.13-3.3,20.19,20.19,0,0,0-1.78,3.06c-1.48-.5-3-1-4.46-1.4a44.23,44.23,0,0,0-14.7-1.66c2.44.44,4.81,1,7.18,1.5s4.74,1.17,7.07,1.8l4.32,1.2c-.18.5-.34,1-.48,1.52a11.68,11.68,0,0,0-.31,2.78c-1.23-.23-2.47-.41-3.71-.55a34.26,34.26,0,0,0-13.1.95c2.21.12,4.36.16,6.5.3s4.29.31,6.42.54l4,.47a10.48,10.48,0,0,0,.63,2.46,2.42,2.42,0,0,0,.21.39,48,48,0,0,1-10.47.65,26.67,26.67,0,0,1-11-2.89,15.25,15.25,0,0,1-4.23-3.55,23,23,0,0,1-3-4.92,41.25,41.25,0,0,1-3-11.62A29.3,29.3,0,0,0,92,56.25a22.2,22.2,0,0,0,2.81,5.8,17.48,17.48,0,0,0,4.88,4.5,25.29,25.29,0,0,0,12.42,3.27A34.2,34.2,0,0,0,123.71,68a10.89,10.89,0,0,0,3.66,3.12,16,16,0,0,0,6.94,1.6,19.39,19.39,0,0,0,3.49-.25,15.16,15.16,0,0,0,2.72-.58c-.2,2-.45,4.29-.45,4.31L140,77.26l10.67-.84.2-.56A79.77,79.77,0,0,0,153.33,65l.16,0a51.87,51.87,0,0,1,11.95,17.78,48.59,48.59,0,0,1,2.87,10.58,42.7,42.7,0,0,1,.5,8.57,131.31,131.31,0,0,1-16-2,121.57,121.57,0,0,1-17.73-4.72,85.91,85.91,0,0,1-16.5-7.81A65.22,65.22,0,0,1,111.26,82a56.4,56.4,0,0,1-6.4-6.44L103,73.31l-.22,2.86a30.92,30.92,0,0,0,.22,6A31.35,31.35,0,0,0,104.27,88a26,26,0,0,0,3.14,6.41c-1.6-.7-3.16-1.49-4.69-2.33a49.69,49.69,0,0,1-8.21-5.55,30,30,0,0,1-6.44-7.3,22.13,22.13,0,0,1-2-4.34,20.92,20.92,0,0,1-.84-4.65l-.32-5.15-2.23,4.63a74.13,74.13,0,0,0-3.06,7.91,72.64,72.64,0,0,0-2.14,8.2,41.14,41.14,0,0,0-.79,8.52c0,.83.09,1.67.18,2.52a14.38,14.38,0,0,1-.73-1.4,39.64,39.64,0,0,1-2.84-7,36,36,0,0,1-1.38-7.41,27.69,27.69,0,0,1,.29-7.41L73,69.46,70.61,73a23.2,23.2,0,0,0-2.8,5.84c-.23.76-.45,1.49-.64,2.25-.17-.74-.33-1.47-.45-2.21l-.43-3.07-.22-1.54L66,72.69,65.8,69.6c0-1,0-2.06.06-3.08a24.41,24.41,0,0,1,.19-3.09c.11-1,.18-2.06.35-3.09a50.72,50.72,0,0,1,3.28-11.85,40.09,40.09,0,0,1,5.76-9.92c2.56-.58,5.11-1.26,7.62-2a74.81,74.81,0,0,0,11.59-4.61A155.79,155.79,0,0,1,74,36.25c-1.19.16-2.37.34-3.55.49a77,77,0,0,1-24.17-.65A76.36,76.36,0,0,1,24,27.26,93.76,93.76,0,0,1,14,20.41,75.36,75.36,0,0,1,7.45,14.53ZM149.31,74.71l-7.33.6c.1-1.06.28-2.71.41-4.09a13.63,13.63,0,0,0,5-3.45,11.85,11.85,0,0,0,1.81-2.85,5.2,5.2,0,0,0,1,.36,10.86,10.86,0,0,0,1.28.09A78.26,78.26,0,0,1,149.31,74.71Z"/><path class="cls-4" d="M104.38,44.56c2.63.68,5.23,1.31,7.78,2.1s5.08,1.65,7.55,2.6c2,.77,3.93,1.61,5.87,2.49l1.45.68c2.41,1.17,4.81,2.34,7.18,3.7a33.45,33.45,0,0,0-6.51-4.92c-.38-.21-.76-.45-1.15-.64a45.64,45.64,0,0,0-6.23-2.89,49.67,49.67,0,0,0-7.85-2.28A42.39,42.39,0,0,0,104.38,44.56Z"/><path class="cls-4" d="M113.69,33c-.2,3,2.67,10.15,8.75,9s5.71-4.79,7.72-1.94c0,0-1.74-4.64-3-6.1,0,0,1.19,2.46-2.51,2.17s-8.59-7.3-14.76-9.52C109.87,26.62,113.88,30,113.69,33Z"/><path class="cls-4" d="M16.49,15.62A36,36,0,0,0,40,28.39a51.49,51.49,0,0,1-8.72-4.75A1.43,1.43,0,0,1,32,21.07c7.48-.43,26.89-1,41.35,3.72a1.41,1.41,0,0,1,.46,2.42,21.79,21.79,0,0,1-8,4.11s11.12-.9,20.18-7.63C86,23.69,64.51,6,16.49,15.62Z"/><path class="cls-5" d="M149.84,63.2a2.5,2.5,0,0,0,.66.19,4,4,0,0,0,1.81-.18A5.5,5.5,0,0,0,155.24,61a6.72,6.72,0,0,0,1-2.36A11.6,11.6,0,0,0,156,53.2a17,17,0,0,0-1.95-4.73,5.69,5.69,0,0,0-1.89-.27s1.65,5-2.17,6.67a16.57,16.57,0,0,1,.43,4.31,15,15,0,0,1-.14,2A18.11,18.11,0,0,1,149.84,63.2Z"/><path class="cls-6" d="M145.55,48.61l6.26-.39C150.68,48.27,148,48.43,145.55,48.61Z"/><path class="cls-5" d="M124.47,62.25a31.43,31.43,0,0,1,6.22,2.17c-2.35-.27-4.68-.58-7-.85A10.53,10.53,0,0,0,124.3,65a8.67,8.67,0,0,0,4.2,3.78,14.33,14.33,0,0,0,5.8,1c.82,0,1.67-.1,2.49-.21l.81-.13c.66-.12,1.31-.27,1.94-.44l.34-.11a8.21,8.21,0,0,0,.88-.29,8.44,8.44,0,0,0,1-.41c.32-.15.63-.31.93-.47a10.64,10.64,0,0,0,2.46-1.9A11.71,11.71,0,0,0,147.9,60a17.62,17.62,0,0,0,.26-4.65c-4.48.5-8-3.32-8.14-6.37,0,0-6.1-3.23-11.3-.16a9.48,9.48,0,0,0-2.17,1.76c.39.19.77.43,1.15.64a33.45,33.45,0,0,1,6.51,4.92c-1.6-.92-3.2-1.74-4.81-2.53q-1.18-.6-2.37-1.17l-1.45-.68a11.62,11.62,0,0,0-.72,1.1,28.55,28.55,0,0,0-1.13,3.3A51.77,51.77,0,0,1,132.32,60c-3-.75-6-1.6-8.93-2.42a14.35,14.35,0,0,0-.18,1.45,11.49,11.49,0,0,0,.11,2.94C123.71,62.08,124.09,62.14,124.47,62.25Z"/><path class="cls-5" d="M90.92,43.88c.09.75.2,1.5.32,2.24v0a.16.16,0,0,0,0,.09,41.62,41.62,0,0,0,.92,4.19,35.82,35.82,0,0,0,1.76,5.08,22.6,22.6,0,0,0,3,4.92A15.25,15.25,0,0,0,101.16,64a26.67,26.67,0,0,0,11,2.89,48,48,0,0,0,10.47-.65,2.42,2.42,0,0,1-.21-.39,11.56,11.56,0,0,1-.63-2.46l-4-.47c-2.13-.23-4.27-.37-6.42-.54s-4.29-.18-6.49-.3A34.19,34.19,0,0,1,118,61.1c1.24.14,2.48.32,3.72.55a12.35,12.35,0,0,1,.19-2.29c0-.16.07-.33.11-.49.14-.52.31-1,.49-1.52l-4.33-1.2c-2.33-.63-4.7-1.22-7.07-1.8s-4.73-1.06-7.17-1.5a44.2,44.2,0,0,1,14.69,1.66c1.51.42,3,.9,4.47,1.4a19.33,19.33,0,0,1,1.77-3.06S92.61,52.16,90.92,43.88Z"/><path class="cls-7" d="M150.32,61.17a18.11,18.11,0,0,1-.48,2,2.5,2.5,0,0,0,.66.19,4,4,0,0,0,1.81-.18A5.5,5.5,0,0,0,155.24,61a6.72,6.72,0,0,0,1-2.36s-2.71,2.9-5.76.59A15,15,0,0,1,150.32,61.17Z"/><path class="cls-7" d="M130.25,64.36c-2.21-.25-4.38-.54-6.53-.79a9.35,9.35,0,0,0,.59,1.39,8.61,8.61,0,0,0,4.19,3.78,14.33,14.33,0,0,0,5.8,1c4-.16,8.25-1.2,10.84-4A11.69,11.69,0,0,0,147.9,60C144.44,62.21,136.9,66.28,130.25,64.36Z"/><path class="cls-7" d="M123.21,59.05a11.49,11.49,0,0,0,.11,2.94c.4.09.77.15,1.15.26,1,.25,1.94.52,2.9.84A14,14,0,0,1,123.21,59.05Z"/><path class="cls-7" d="M92.18,50.42a35.82,35.82,0,0,0,1.76,5.08,22.6,22.6,0,0,0,3,4.92A15.25,15.25,0,0,0,101.16,64a26.67,26.67,0,0,0,11,2.89,48,48,0,0,0,10.47-.65,2.42,2.42,0,0,1-.21-.39,11.56,11.56,0,0,1-.63-2.46l-4-.47c-2.13-.23-4.27-.37-6.42-.54s-4.29-.18-6.49-.3A34.19,34.19,0,0,1,118,61.1c1.24.14,2.48.32,3.72.55a12.35,12.35,0,0,1,.19-2.29C116.61,60.52,96.88,63.88,92.18,50.42Z"/><path class="cls-8" d="M123.16,37.88a12.67,12.67,0,0,1-5.71-3.76S118.22,42.19,123.16,37.88Z"/></g></g></g></svg>